<?xml version="1.0" encoding="UTF-8"?>
<svg width="512" height="512" viewBox="0 0 512 512" fill="none" xmlns="http://www.w3.org/2000/svg">
  <rect width="512" height="512" rx="256" fill="#F5F5F5"/>
  <path d="M256 64C256 64 217.6 115.2 179.2 140.8C140.8 166.4 89.6 166.4 89.6 166.4C89.6 166.4 102.4 217.6 128 256C153.6 294.4 204.8 307.2 204.8 307.2L179.2 448L256 409.6L332.8 448L307.2 307.2C307.2 307.2 358.4 294.4 384 256C409.6 217.6 422.4 166.4 422.4 166.4C422.4 166.4 371.2 166.4 332.8 140.8C294.4 115.2 256 64 256 64Z" fill="#E53935"/>
</svg> 